<svg width="65" height="23" viewBox="0 0 65 23" fill="none" xmlns="http://www.w3.org/2000/svg">
<path d="M16.1445 10.7148C16.1055 12.0039 15.9453 13.1875 15.6641 14.2656C15.3906 15.3359 14.9961 16.3008 14.4805 17.1602C13.8477 18.2148 13.0781 19.0078 12.1719 19.5391C11.2656 20.0703 10.2227 20.3359 9.04297 20.3359C7.76172 20.3359 6.58203 20.0586 5.50391 19.5039C4.42578 18.9492 3.45703 18.1172 2.59766 17.0078C1.79297 15.9766 1.1875 14.875 0.78125 13.7031C0.382812 12.5312 0.183594 11.2812 0.183594 9.95312C0.183594 8.67969 0.359375 7.49609 0.710938 6.40234C1.0625 5.30859 1.60547 4.31641 2.33984 3.42578C3.12109 2.47266 4.01953 1.75781 5.03516 1.28125C6.05078 0.796875 7.18359 0.554688 8.43359 0.554688C9.04297 0.554688 9.63281 0.636719 10.2031 0.800781C10.7734 0.964844 11.3164 1.21484 11.832 1.55078C12.3398 1.87891 12.793 2.26172 13.1914 2.69922C13.5898 3.13672 13.9297 3.62891 14.2109 4.17578L13.4141 4.375C13.1562 4.10156 12.8438 3.89844 12.4766 3.76562C12.1094 3.63281 11.6758 3.56641 11.1758 3.56641C10.1367 3.56641 9.17188 3.85547 8.28125 4.43359C7.39844 5.00391 6.59766 5.86328 5.87891 7.01172C5.24609 8.01953 4.76953 9.05469 4.44922 10.1172C4.13672 11.1719 3.98047 12.2539 3.98047 13.3633C3.98047 14.168 4.07812 14.9102 4.27344 15.5898C4.47656 16.2617 4.78125 16.8633 5.1875 17.3945C5.64062 17.9883 6.17578 18.4336 6.79297 18.7305C7.41016 19.0273 8.10938 19.1758 8.89062 19.1758C9.50781 19.1758 10.0625 19.0156 10.5547 18.6953C11.0547 18.3672 11.4961 17.8789 11.8789 17.2305C12.1836 16.707 12.4258 16.1445 12.6055 15.543C12.7852 14.9336 12.8945 14.2852 12.9336 13.5977L7.55469 14.0781L7.22656 12.3672L12.2422 11.8516L7.96484 10.8086L8.09375 8.92188L16.1445 10.7148ZM6.89844 3.8125C6.89844 3.53906 6.82812 3.33203 6.6875 3.19141C6.54688 3.05078 6.33594 2.98047 6.05469 2.98047C5.78125 2.98047 5.57422 3.05078 5.43359 3.19141C5.29297 3.33203 5.22266 3.53906 5.22266 3.8125C5.22266 4.03125 5.30469 4.22656 5.46875 4.39844C5.63281 4.57031 5.82812 4.65625 6.05469 4.65625C6.33594 4.65625 6.54688 4.58594 6.6875 4.44531C6.82812 4.30469 6.89844 4.09375 6.89844 3.8125ZM4.74219 5.57031C4.74219 5.28125 4.63672 5.03125 4.42578 4.82031C4.21484 4.60156 3.96094 4.49219 3.66406 4.49219C3.36719 4.49219 3.11328 4.60156 2.90234 4.82031C2.69922 5.03125 2.59766 5.28125 2.59766 5.57031C2.59766 5.86719 2.69922 6.125 2.90234 6.34375C3.11328 6.55469 3.36719 6.66016 3.66406 6.66016C3.96094 6.66016 4.21484 6.55469 4.42578 6.34375C4.63672 6.125 4.74219 5.86719 4.74219 5.57031ZM3.39453 8.35938C3.39453 8.07812 3.32422 7.86719 3.18359 7.72656C3.05078 7.58594 2.84375 7.51562 2.5625 7.51562C2.28125 7.51562 2.07031 7.58594 1.92969 7.72656C1.78906 7.86719 1.71875 8.07812 1.71875 8.35938C1.71875 8.57812 1.80078 8.77344 1.96484 8.94531C2.13672 9.11719 2.33594 9.20312 2.5625 9.20312C2.78906 9.20312 2.98438 9.11719 3.14844 8.94531C3.3125 8.77344 3.39453 8.57812 3.39453 8.35938ZM23.2695 6.97656L22.9766 7.69141L21.957 7.16406C21.8477 7.30469 21.7266 7.41797 21.5938 7.50391C21.4609 7.58984 21.3125 7.65234 21.1484 7.69141L21.3828 8.65234L20.5859 8.76953L20.3867 7.76172C20.2617 7.73828 20.1367 7.69531 20.0117 7.63281C19.8945 7.5625 19.7812 7.48438 19.6719 7.39844L18.8984 8.11328L18.3594 7.49219L19.2617 6.83594C19.1836 6.6875 19.1367 6.53125 19.1211 6.36719C19.1133 6.20312 19.1289 6.02734 19.168 5.83984L18.125 5.18359L18.5117 4.55078L19.4727 5.20703C19.5664 5.08984 19.6719 4.99219 19.7891 4.91406C19.9141 4.82812 20.0547 4.76172 20.2109 4.71484L20.0117 3.33203H20.7617L20.8086 4.62109C20.9805 4.64453 21.1367 4.68359 21.2773 4.73828C21.418 4.79297 21.5508 4.86328 21.6758 4.94922L22.4961 4.29297L23.0352 4.83203L22.0977 5.46484C22.1602 5.55078 22.2031 5.68359 22.2266 5.86328C22.25 6.04297 22.2578 6.26953 22.25 6.54297L23.2695 6.97656ZM22.8711 21.8477L17.9375 21.2148L19.7656 9.80078H21.957L22.8711 21.8477ZM21.4766 15.8008C21.4766 15.5273 21.4062 15.3203 21.2656 15.1797C21.1328 15.0391 20.9258 14.9688 20.6445 14.9688C20.3555 14.9688 20.1406 15.0391 20 15.1797C19.8594 15.3203 19.7891 15.5273 19.7891 15.8008C19.7891 16.082 19.8594 16.293 20 16.4336C20.1406 16.5742 20.3555 16.6445 20.6445 16.6445C20.9258 16.6445 21.1328 16.5742 21.2656 16.4336C21.4062 16.293 21.4766 16.082 21.4766 15.8008ZM21.4766 18.9766C21.4766 18.6797 21.3711 18.4258 21.1602 18.2148C20.9492 18.0039 20.6914 17.8984 20.3867 17.8984C20.0977 17.8984 19.8477 18.0039 19.6367 18.2148C19.4258 18.4258 19.3203 18.6797 19.3203 18.9766C19.3203 19.2734 19.4258 19.5273 19.6367 19.7383C19.8477 19.9414 20.0977 20.043 20.3867 20.043C20.6914 20.043 20.9492 19.9414 21.1602 19.7383C21.3711 19.5273 21.4766 19.2734 21.4766 18.9766ZM38.6211 14.2188L37.1562 14.6172C37.1797 14.7656 37.1992 14.9258 37.2148 15.0977C37.2305 15.2617 37.2383 15.4375 37.2383 15.625C37.2383 15.9062 37.2188 16.1836 37.1797 16.457C37.1406 16.7305 37.082 17.0039 37.0039 17.2773L38.1758 17.8164L37.5781 18.8477L36.6523 18.1914C36.3555 18.8242 35.9727 19.3594 35.5039 19.7969C35.0352 20.2344 34.4805 20.582 33.8398 20.8398L34.168 22.2344L33.0898 22.5039L32.8789 21.1328C32.6445 21.1719 32.4375 21.1992 32.2578 21.2148C32.0859 21.2383 31.9375 21.25 31.8125 21.25C31.3438 21.25 30.8828 21.1914 30.4297 21.0742C29.9844 20.957 29.5547 20.7734 29.1406 20.5234L28.2734 21.8711L27.3477 21.332L28.332 19.9258C28.0195 19.668 27.7422 19.3789 27.5 19.0586C27.2656 18.7383 27.0664 18.3906 26.9023 18.0156L25.4375 18.4727L25.2266 17.4766L26.5625 17.1836C26.4922 16.8945 26.4414 16.6172 26.4102 16.3516C26.3789 16.0859 26.3633 15.8438 26.3633 15.625C26.3633 15.3828 26.375 15.1484 26.3984 14.9219C26.4297 14.6875 26.4766 14.4648 26.5391 14.2539L25.2266 13.832L25.4961 12.8242L26.8438 13.3867C27.0312 12.9102 27.2734 12.4766 27.5703 12.0859C27.875 11.6953 28.2305 11.3516 28.6367 11.0547L27.8516 9.82422L28.7539 9.20312L29.5273 10.5156C29.8867 10.3438 30.2539 10.2148 30.6289 10.1289C31.0117 10.043 31.4062 10 31.8125 10C32.2188 10 32.6016 10.043 32.9609 10.1289C33.3281 10.207 33.6797 10.3242 34.0156 10.4805L34.6367 9.36719L35.5508 9.88281L34.918 11.0195C35.3789 11.3555 35.7734 11.7422 36.1016 12.1797C36.4297 12.6172 36.7031 13.1094 36.9219 13.6562L38.3516 13.0234L38.6211 14.2188ZM33.957 15.625C33.957 15.1328 33.9102 14.6797 33.8164 14.2656C33.7227 13.8516 33.5703 13.4727 33.3594 13.1289C33.1094 12.7148 32.8125 12.4062 32.4688 12.2031C32.125 11.9922 31.7227 11.8867 31.2617 11.8867C30.8164 11.8867 30.418 11.9922 30.0664 12.2031C29.7148 12.4062 29.418 12.7188 29.1758 13.1406C28.9727 13.4844 28.8203 13.8672 28.7188 14.2891C28.625 14.7031 28.5781 15.1484 28.5781 15.625C28.5781 16.1328 28.625 16.5977 28.7188 17.0195C28.8203 17.4336 28.9688 17.8086 29.1641 18.1445C29.4062 18.5664 29.7031 18.8789 30.0547 19.082C30.4062 19.2852 30.8086 19.3867 31.2617 19.3867C31.7305 19.3867 32.1406 19.2852 32.4922 19.082C32.8438 18.8789 33.1367 18.5664 33.3711 18.1445C33.5586 17.8086 33.7031 17.4336 33.8047 17.0195C33.9062 16.5977 33.957 16.1328 33.957 15.625ZM51.793 11.4297L50.6562 11.8516C50.6562 11.9141 50.6602 12.0078 50.668 12.1328C50.6758 12.2578 50.6797 12.3555 50.6797 12.4258C50.6797 12.6289 50.6562 12.8203 50.6094 13C50.5703 13.1719 50.5078 13.332 50.4219 13.4805L51.4297 14.1953L50.7969 14.8164L49.9062 14.1016C49.7812 14.2188 49.6367 14.3281 49.4727 14.4297C49.3164 14.5312 49.1406 14.6328 48.9453 14.7344L48.3477 13.9141C48.4727 13.7578 48.5625 13.6016 48.6172 13.4453C48.6797 13.2891 48.7109 13.1328 48.7109 12.9766C48.7109 12.6562 48.6016 12.4141 48.3828 12.25C48.1641 12.0859 47.8359 12.0039 47.3984 12.0039C46.9141 12.0039 46.3984 12.2656 45.8516 12.7891C45.3047 13.3047 44.7266 14.0781 44.1172 15.1094L44.293 21.5547L40.2734 20.957L42.1016 9.91797L43.9531 9.54297L44.0469 13C44.2969 12.6484 44.5391 12.3359 44.7734 12.0625C45.0078 11.7891 45.2344 11.5508 45.4531 11.3477L44.9492 10.2109L45.7461 9.80078L46.168 10.7734C46.4414 10.6094 46.7188 10.4727 47 10.3633C47.2891 10.2461 47.582 10.1641 47.8789 10.1172L47.9141 8.94531L48.7695 9.02734L48.5938 10.0938C49.0312 10.1172 49.4023 10.2188 49.707 10.3984C50.0195 10.5703 50.2578 10.8164 50.4219 11.1367L51.4883 10.5742L51.793 11.4297ZM43.3789 16.2227C43.3789 15.9805 43.3164 15.7969 43.1914 15.6719C43.0664 15.5391 42.8711 15.4727 42.6055 15.4727C42.3633 15.4727 42.1797 15.5391 42.0547 15.6719C41.9297 15.7969 41.8672 15.9805 41.8672 16.2227C41.8672 16.4727 41.9297 16.6602 42.0547 16.7852C42.1797 16.9023 42.3633 16.9609 42.6055 16.9609C42.8711 16.9609 43.0664 16.9023 43.1914 16.7852C43.3164 16.6602 43.3789 16.4727 43.3789 16.2227ZM43.3203 19.0938C43.3203 18.8203 43.2266 18.5898 43.0391 18.4023C42.8594 18.207 42.6367 18.1094 42.3711 18.1094C42.1133 18.1094 41.8867 18.207 41.6914 18.4023C41.5039 18.5898 41.4102 18.8203 41.4102 19.0938C41.4102 19.4141 41.4883 19.6523 41.6445 19.8086C41.8086 19.9648 42.0508 20.043 42.3711 20.043C42.6992 20.043 42.9375 19.9648 43.0859 19.8086C43.2422 19.6523 43.3203 19.4141 43.3203 19.0938ZM64.3789 19.293L64.3672 19.9258C63.1562 20.4727 61.957 20.8789 60.7695 21.1445C59.5898 21.418 58.4219 21.5547 57.2656 21.5547C56.625 21.5547 56.0391 21.4922 55.5078 21.3672C54.9766 21.2422 54.5 21.0586 54.0781 20.8164C53.5781 20.5273 53.1992 20.1562 52.9414 19.7031C52.6914 19.25 52.5664 18.7227 52.5664 18.1211C52.5664 17.0586 53.0977 16.1094 54.1602 15.2734C55.2305 14.4375 56.8242 13.7148 58.9414 13.1055C58.7695 12.6055 58.4766 12.2266 58.0625 11.9688C57.6562 11.7109 57.1367 11.582 56.5039 11.582C55.8242 11.582 55.207 11.7227 54.6523 12.0039C54.0977 12.2773 53.6055 12.6836 53.1758 13.2227L52.5547 12.625C53.2109 11.6172 54.0234 10.8594 54.9922 10.3516C55.9609 9.83594 57.0898 9.57812 58.3789 9.57812C59.4258 9.57812 60.3438 9.87109 61.1328 10.457C61.9297 11.0352 62.6016 11.9062 63.1484 13.0703C63.5781 13.9844 63.8945 14.9609 64.0977 16C64.3086 17.0312 64.4023 18.1289 64.3789 19.293ZM62.5625 15.2148C62.5625 14.9336 62.4922 14.7227 62.3516 14.582C62.2188 14.4414 62.0117 14.3711 61.7305 14.3711C61.4492 14.3711 61.2344 14.4414 61.0859 14.582C60.9453 14.7227 60.875 14.9336 60.875 15.2148C60.875 15.4961 60.9453 15.707 61.0859 15.8477C61.2344 15.9805 61.4492 16.0469 61.7305 16.0469C62.0117 16.0469 62.2188 15.9805 62.3516 15.8477C62.4922 15.707 62.5625 15.4961 62.5625 15.2148ZM59.7734 18.4258C59.7734 17.7148 59.7383 17.0117 59.668 16.3164C59.6055 15.6211 59.5039 14.9336 59.3633 14.2539C58.6289 14.4648 57.9648 14.6914 57.3711 14.9336C56.7852 15.168 56.2734 15.418 55.8359 15.6836L57.0312 20.5234C57.6562 20.5234 58.1953 20.4883 58.6484 20.418C59.1016 20.3477 59.4648 20.2344 59.7383 20.0781C59.7539 19.7969 59.7617 19.5195 59.7617 19.2461C59.7695 18.9727 59.7734 18.6992 59.7734 18.4258ZM63.043 18.3789C63.043 18.082 62.9375 17.8281 62.7266 17.6172C62.5234 17.4062 62.2695 17.3008 61.9648 17.3008C61.668 17.3008 61.4102 17.4023 61.1914 17.6055C60.9805 17.8086 60.875 18.0664 60.875 18.3789C60.875 18.6836 60.9805 18.9375 61.1914 19.1406C61.4102 19.3438 61.668 19.4453 61.9648 19.4453C62.2695 19.4453 62.5234 19.3438 62.7266 19.1406C62.9375 18.9297 63.043 18.6758 63.043 18.3789Z" fill="#1A1A1A"/>
</svg>
